HIERARCHY
ROOT Hips
{
  OFFSET -187.679 86.5976 -156.378
  CHANNELS 6 Xposition Yposition Zposition Zrotation Xrotation Yrotation
  JOINT LeftUpLeg
  {
    OFFSET 8.64259 1.95398 -2.38835
    CHANNELS 3 Zrotation Xrotation Yrotation
    JOINT LeftLeg
    {
      OFFSET 43.7702 0 0
      CHANNELS 3 Zrotation Xrotation Yrotation
      JOINT LeftFoot
      {
        OFFSET 40.6238 0 0
        CHANNELS 3 Zrotation Xrotation Yrotation
        JOINT LeftToeBase
        {
          OFFSET 12.7242 0 0
          CHANNELS 3 Zrotation Xrotation Yrotation
          End Site
          {
            OFFSET 0 0 0
          }
        }
      }
    }
  }
  JOINT RightUpLeg
  {
    OFFSET -8.2249 1.95398 -2.59336
    CHANNELS 3 Zrotation Xrotation Yrotation
    JOINT RightLeg
    {
      OFFSET 43.5653 0 0
      CHANNELS 3 Zrotation Xrotation Yrotation
      JOINT RightFoot
      {
        OFFSET 40.6238 0 0
        CHANNELS 3 Zrotation Xrotation Yrotation
        JOINT RightToeBase
        {
          OFFSET 12.7242 0 0
          CHANNELS 3 Zrotation Xrotation Yrotation
          End Site
          {
            OFFSET 0 0 0
          }
        }
      }
    }
  }
  JOINT Spine
  {
    OFFSET 0.165834 0.87714 6.61349
    CHANNELS 3 Zrotation Xrotation Yrotation
    JOINT Spine1
    {
      OFFSET 7.38963 1.71661e-005 0
      CHANNELS 3 Zrotation Xrotation Yrotation
      JOINT Spine2
      {
        OFFSET 11.9445 1.14441e-005 0
        CHANNELS 3 Zrotation Xrotation Yrotation
        JOINT Spine3
        {
          OFFSET 14.7254 4.19617e-005 0
          CHANNELS 3 Zrotation Xrotation Yrotation
          JOINT Spine4
          {
            OFFSET 10.9679 0 0
            CHANNELS 3 Zrotation Xrotation Yrotation
            JOINT RightShoulder
            {
              OFFSET 2.46616 -1.6653 3.69651
              CHANNELS 3 Zrotation Xrotation Yrotation
              JOINT RightArm
              {
                OFFSET 13.0012 0 0
                CHANNELS 3 Zrotation Xrotation Yrotation
                JOINT RightForeArm
                {
                  OFFSET 28.7848 1.52588e-005 0
                  CHANNELS 3 Zrotation Xrotation Yrotation
                  JOINT RightHand
                  {
                    OFFSET 26.5688 1.52588e-005 0
                    CHANNELS 3 Zrotation Xrotation Yrotation
                    End Site
                    {
                      OFFSET 0 0 0
                    }
                  }
                }
              }
            }
            JOINT LeftShoulder
            {
              OFFSET 2.38034 -1.29275 -3.7523
              CHANNELS 3 Zrotation Xrotation Yrotation
              JOINT LeftArm
              {
                OFFSET 16.3182 6.10352e-005 0
                CHANNELS 3 Zrotation Xrotation Yrotation
                JOINT LeftForeArm
                {
                  OFFSET 27.0901 0 0
                  CHANNELS 3 Zrotation Xrotation Yrotation
                  JOINT LeftHand
                  {
                    OFFSET 24.5451 1.52588e-005 0
                    CHANNELS 3 Zrotation Xrotation Yrotation
                    End Site
                    {
                      OFFSET 0 0 0
                    }
                  }
                }
              }
            }
            JOINT Neck
            {
              OFFSET 5.0226 -0.0266342 0
              CHANNELS 3 Zrotation Xrotation Yrotation
              JOINT Head
              {
                OFFSET 6.69363 2.86102e-005 0
                CHANNELS 3 Zrotation Xrotation Yrotation
                End Site
                {
                  OFFSET 0 0 0
                }
              }
            }
          }
        }
      }
    }
  }
}
MOTION
Frames:	18
Frame Time:	0.0416667
254.299 93.8225 257.394 -71.0255 42.6653 -104.632 -175.213 55.8989 87.5687 -55.2101 16.5208 -0.579909 77.1021 7.67312 -1.20581 27.7014 0.928793 -4.10338 -171.751 -8.55474 109.226 -13.5662 4.23084 -30.7694 -20.7436 -29.1703 38.8478 56.3684 3.87778 4.463 2.04358 7.6698 -89.173 11.5161 4.45242 1.192 -0.147572 4.50056 0.994502 -22.7277 3.88815 2.47663 -2.71508 3.88817 2.47664 94.3535 -34.6996 -96.7699 11.9489 -9.50315 -32.4231 -47.018 6.49794 -87.3655 -1.94397 -0.0779206 -0.464662 -88.7584 -33.2827 76.8605 -39.1969 37.954 42.7807 96.7196 -45.0648 -78.5378 -1.73798 -0.047997 2.80151 39.3835 -12.3377 -8.95813 -0.771596 -7.20772 8.37573 
246.924 93.8761 250.19 -76.2383 43.1869 -99.9349 -174.489 45.9024 88.3424 -52.7303 19.955 0.00423971 77.5163 8.16119 -0.590299 23.5395 -1.26785 -2.02172 -174.788 -1.75498 107.274 -41.2058 -1.28289 -23.9106 -14.7337 1.59462 35.3903 47.649 1.23302 14.0741 1.76347 7.96124 -89.2423 10.9358 3.86159 1.14367 -0.729735 3.90816 0.97238 -23.2979 3.33922 2.25236 -3.28526 3.33922 2.25236 90.1524 -41.3442 -102.598 12.3353 -18.2407 -22.13 -44.9104 6.48238 -83.3419 -2.93823 -0.144543 0.75002 -89.8618 -40.3318 76.8805 -24.4786 34.3711 22.8846 91.0702 -38.9524 -83.5185 1.79503 0.256573 5.34776 36.4575 -11.8041 -11.2597 0.293549 -5.87731 7.37995 
238.96 93.6867 243.713 -81.2988 38.795 -100.227 -175.587 35.4469 82.8678 -50.3508 19.4901 1.2068 74.4132 7.20278 0.500684 25.7841 0.22783 -3.77029 176.057 9.399 92.7787 -67.858 -4.40158 -6.82769 -0.289097 15.8743 16.8568 47.8749 0.954039 16.1027 0.772105 8.25041 -88.7919 10.3448 2.09084 2.21905 -1.32662 2.18646 2.12492 -23.8489 1.32767 2.74446 -3.83623 1.32768 2.74445 87.5768 -46.3478 -105.36 18.4615 -24.4774 -11.3472 -49.6672 0.575386 -75.9966 -0.762112 -0.025437 -0.916128 -92.0399 -45.0613 74.6344 -16.0234 28.3041 7.30972 83.5888 -33.9271 -89.703 4.35319 0.38202 6.00914 32.6662 -10.9283 -14.2265 0.710532 -4.2066 6.9245 
232.331 93.2615 236.897 -80.1782 39.6793 -100.699 -173.563 31.0874 84.4309 -54.1902 13.8001 0.306715 82.8543 8.77499 -5.64195 18.2205 0.0779046 -9.87741 176.057 21.1568 88.0301 -82.5473 4.86444 -3.01743 18.4117 12.6633 1.64615 62.2086 5.62907 27.9834 0.369264 7.96697 -88.622 10.917 1.37224 2.60998 -0.755637 1.48575 2.5471 -23.2714 0.524753 2.90148 -3.2588 0.524758 2.90148 86.7186 -48.9721 -105.915 26.8199 -23.56 0.523443 -55.2234 -10.3468 -70.9052 -1.28313 -0.0438755 -1.75029 -93.4382 -46.9222 72.9914 -11.3159 32.2119 -8.75683 74.5062 -31.8063 -88.9939 -9.84412 0.214944 -4.55987 27.7336 -8.67923 -16.2301 2.16705 -1.93718 5.20978 
226.537 91.8697 230.864 -80.1246 39.9168 -101.788 -172.389 25.5638 84.6528 -55.4405 15.4524 0.224426 84.2292 10.3499 -3.69885 31.3198 5.89726 -17.7199 176.038 30.7329 91.0094 -94.9556 11.3706 -4.17737 51.4108 1.62484 -5.8605 60.438 4.67658 18.9397 -0.211949 8.01635 -88.4763 10.8277 0.281641 3.00407 -0.846702 0.413509 2.98879 -23.3548 -0.633847 2.94997 -3.3421 -0.633829 2.94996 88.9959 -47.8762 -102.698 32.9605 -16.5362 10.9762 -54.8192 -14.6961 -68.42 -2.42034 -0.106395 0.169713 -93.414 -45.6213 72.6491 0.697387 31.2915 -33.7917 71.0907 -29.7907 -87.4805 -20.0883 1.10879 -11.8477 27.1666 -6.00271 -15.6615 3.62705 0.224603 2.02347 
219.655 89.8699 224.165 -82.6234 38.0007 -98.5981 -172.163 17.7491 87.6477 -57.7009 16.8204 1.82341 91.8968 12.9458 -5.59741 29.7693 5.26258 -16.494 176.026 36.0937 92.4347 -98.7381 8.9855 -4.06803 73.8934 -5.71983 -6.58851 34.6512 -1.16438 8.60125 -1.17147 7.96157 -88.5184 10.9665 -1.64667 3.08541 -0.707177 -1.50936 3.1548 -23.2289 -2.49735 2.44853 -3.21628 -2.49736 2.44854 90.161 -47.7799 -100.739 33.8897 -10.2211 21.528 -82.0942 -26.2921 -80.7738 11.971 -1.01197 -12.8576 -92.6286 -40.7009 72.5044 3.34734 19.1399 -45.8042 73.3052 -30.1429 -89.7168 -8.50306 -0.0991001 -3.33528 22.9337 -2.39795 -17.1803 4.64437 3.40792 1.87096 
211.849 89.9086 216.482 -83.3181 37.5936 -94.2797 -170.982 7.00233 94.2563 -51.9235 20.7312 4.19058 91.1979 13.6667 -3.60721 36.3517 6.15523 -14.7645 175.086 44.4079 96.4712 -94.2342 13.4639 -2.88026 78.9154 -6.83982 -2.79116 20.8826 -3.58938 6.32397 -2.33347 7.75656 -88.5313 11.4918 -3.95714 3.25662 -0.176514 -3.80991 3.4276 -22.7553 -4.75314 1.91539 -2.74264 -4.75314 1.91539 86.3364 -50.9156 -105.641 27.7919 -6.7605 33.2458 -48.0508 -12.2438 -67.7696 -0.682705 0.108277 -3.71289 -87.6166 -30.0669 78.0903 -1.10027 5.17499 -48.9412 73.1019 -31.4484 -95.8104 -2.37133 -0.133588 6.88506 20.1687 2.77097 -20.3319 3.40543 8.81995 1.05248 
203.474 91.2712 208.227 -84.1094 38.7414 -90.6455 -168.984 -4.71738 97.9355 -39.6601 27.4696 6.90596 78.5991 10.4097 3.05969 49.9351 9.07422 -13.7079 174.631 49.6495 99.7828 -83.924 16.7828 -1.24664 77.4691 -5.73766 -1.79331 20.7672 -3.27399 5.50641 -2.61267 8.07691 -89.7368 10.7411 -5.08115 1.00007 -0.920554 -5.03222 1.22327 -23.5343 -5.14613 -0.577362 -3.52165 -5.14612 -0.57736 95.3486 -36.6905 -94.5444 29.5176 -5.54487 34.7211 -61.3191 -15.5806 -75.0369 8.8923 -0.325645 -8.35013 -87.4251 -26.7141 77.4674 -3.37814 -4.51893 -57.6013 65.571 -28.4497 -99.9137 -0.367001 0.108937 7.62776 23.3101 7.39522 -6.91212 3.79156 9.16956 -4.78103 
194.79 92.8428 199.826 -84.3853 40.3217 -87.8065 -167.298 -16.3312 100.242 -25.9919 31.9913 8.26312 59.4299 1.50819 3.80276 59.1372 11.0051 -5.82381 175.671 50.9805 101.144 -68.9908 15.344 0.578543 73.3493 -4.1156 -1.33464 21.5522 -2.93829 5.04362 -3.12965 8.0502 -90.1312 10.7957 -6.29252 0.323157 -0.860032 -6.27217 0.600884 -23.5128 -6.0976 -1.59021 -3.50018 -6.09759 -1.59021 94.0111 -35.4995 -97.2297 24.4992 -3.14558 41.2881 -52.6031 -9.42767 -73.8424 1.19975 -0.00363236 -3.46412 -84.0438 -18.558 82.3667 -8.64735 -7.30398 -54.9623 61.0974 -29.0523 -104.766 2.87884 0.520079 8.98669 26.1983 10.966 -6.38087 -1.08634 12.7177 -4.02747 
185.747 94.0857 191.045 -84.1266 43.1556 -85.7407 -167.432 -22.63 99.8774 -22.9717 29.1403 10.7199 50.1628 -3.1868 1.08291 31.5635 2.87166 -6.50251 178.227 48.5171 101.82 -51.5793 6.4258 1.2182 71.5133 -4.12018 -0.727062 21.8085 -2.1474 2.98556 -3.1495 8.03682 -90.6307 10.7944 -6.56236 -0.645329 -0.859969 -6.58437 -0.35462 -23.5122 -6.06393 -2.5948 -3.49952 -6.06393 -2.59481 94.1215 -33.4199 -97.5052 22.2155 -3.4137 46.3058 -49.2971 -7.18559 -75.4061 1.44802 -0.0303939 -5.51046 -83.2183 -14.7984 83.3273 -9.1022 -7.54541 -52.3851 60.9359 -29.6512 -105.336 0.57177 0.184966 6.61308 26.561 14.0662 -1.93356 -2.34174 14.1266 -4.62403 
177.338 94.1102 182.72 -83.9686 45.0513 -85.8293 -167.81 -22.6079 98.4437 -32.2771 34.1824 10.437 51.3409 -2.81755 3.2266 24.8768 -0.164956 -3.64624 179.774 45.8076 101.456 -39.2089 -3.26974 1.12963 70.5334 -4.16477 -2.06355 23.1048 -2.32234 4.21015 -3.0619 7.99415 -90.8081 10.8685 -6.46973 -1.00136 -0.786428 -6.50749 -0.714463 -23.4299 -5.86876 -2.9057 -3.41722 -5.86875 -2.9057 93.7538 -34.3872 -97.9664 19.6942 -3.25504 48.3611 -49.467 -6.17773 -77.2075 -0.94942 -0.014266 -4.8593 -82.8081 -13.9912 84.1291 -6.9487 -2.91808 -50.1314 60.7501 -29.5511 -103.92 -1.70039 0.00519241 4.79241 25.884 15.5543 0.229843 -0.756121 14.7188 -4.37225 
169.614 92.9126 174.774 -86.8652 46.0815 -85.7595 -168.359 -20.5906 95.9137 -47.1526 33.4776 8.90331 53.6337 -2.25886 2.03893 32.5686 3.13462 -6.29234 179.011 41.8138 100.84 -36.6018 2.34576 2.13164 72.1276 -4.78079 -1.1255 21.3553 -3.06319 5.30371 -2.88071 8.03908 -90.6129 10.7894 -6.01893 -0.660491 -0.867574 -6.04215 -0.393982 -23.5003 -5.54134 -2.44425 -3.48764 -5.54134 -2.44425 93.1605 -37.6429 -98.2958 18.2974 -1.58539 45.8852 -49.2425 -7.87376 -75.7273 -1.06313 -0.0301724 -3.51585 -84.1787 -18.7288 82.1009 -2.75278 4.40439 -45.171 63.8054 -29.6282 -100.163 -3.14075 -0.147432 5.05936 23.6848 15.6103 2.11931 0.574072 14.1069 -4.98936 
161.824 92.1694 166.681 -91.6091 46.704 -83.4079 -167.388 -15.339 95.4357 -63.8613 27.1266 6.8952 51.8613 -3.1417 2.67455 31.9791 2.98745 -6.32619 176.953 36.3198 100.438 -40.147 4.35236 3.68694 68.0778 -2.88657 -1.64942 26.56 -0.994374 2.12094 -2.6046 8.18781 -90.459 10.4965 -5.39866 -0.432212 -1.16323 -5.41243 -0.193488 -23.7786 -5.01854 -2.03876 -3.76594 -5.01856 -2.03877 91.3689 -40.4187 -100.756 17.086 2.9418 41.9003 -49.8857 -8.99892 -76.2142 -2.98101 -0.0928511 -1.69099 -86.3734 -25.9523 79.3664 0.752907 12.6513 -37.9535 66.8547 -29.4045 -95.4636 -4.24599 -0.213556 3.55623 19.9547 15.2882 4.37642 2.93769 13.1152 -5.35991 
154.548 91.5414 158.506 -93.8721 46.0216 -80.6807 -166.188 -5.65033 98.7741 -79.5779 16.6231 6.08756 54.1871 -1.68222 4.10231 31.4219 2.59728 -5.55438 173.373 33.9767 101.549 -49.5057 1.02425 5.81639 66.1356 -1.83559 -3.92787 11.714 -3.47132 1.66557 -2.28025 8.26193 -90.7021 10.3374 -4.86414 -0.972141 -1.32464 -4.90221 -0.756619 -23.9184 -4.34672 -2.39149 -3.90577 -4.34673 -2.39149 89.9145 -44.986 -101.994 14.7275 6.20737 35.3253 -47.3281 -7.21298 -78.089 -3.13706 -0.100527 -1.43163 -87.9595 -33.1445 78.2877 0.820021 21.0879 -31.1132 69.9755 -26.2901 -89.8175 -1.33574 -0.00213064 5.13587 16.9974 14.2964 6.58659 5.1355 11.6507 -4.35534 
148.217 90.0726 150.842 -95.6685 46.446 -75.4835 -167.34 8.18705 102.168 -95.2402 9.53823 6.90823 59.6091 0.957218 5.18176 30.7898 3.07943 -7.9482 171.207 29.6887 106.614 -58.9334 1.72306 6.3641 74.2549 -5.4054 -4.56533 20.0858 -3.14125 4.70692 -1.65781 8.43774 -91.3296 9.9553 -3.90778 -2.32209 -1.71153 -4.00616 -2.14772 -24.2612 -3.02955 -3.38923 -4.24859 -3.02956 -3.38923 90.6234 -46.0229 -100.595 16.8189 7.584 22.0812 -48.0046 -6.35794 -79.1054 -3.79531 -0.190795 0.612113 -90.4476 -40.2334 75.8736 -1.44194 26.3448 -20.9183 74.8414 -22.3077 -85.7705 -3.8393 -0.138463 0.520827 16.8477 13.2251 8.84384 5.79237 10.0094 -3.72444 
141.97 89.1456 143.561 -97.9318 47.5695 -70.8216 -171.704 22.2371 104.884 -104.828 12.8353 8.12197 61.967 2.81952 9.73179 27.3857 2.70678 -9.96198 172.265 22.2124 109.322 -61.7418 2.47492 6.40269 80.885 -8.16105 -4.2101 22.1163 -2.71681 4.7592 -0.942909 8.66211 -91.6195 9.50522 -2.60946 -3.01185 -2.16637 -2.73942 -2.89417 -24.6826 -1.58436 -3.65617 -4.66992 -1.58436 -3.65617 89.1714 -48.909 -102.154 17.2991 8.30517 7.21157 -47.7415 -5.28496 -80.3137 -6.77486 -0.449501 2.93914 -90.9586 -40.9616 75.2253 -9.72764 28.2678 -6.66948 78.96 -21.0095 -84.056 -5.34411 -0.176835 -0.756572 18.6812 11.3134 6.85954 4.44966 8.69598 -2.64431 
134.929 88.281 136.287 -98.4725 48.1959 -71.6091 -176.538 34.1803 103.306 -106.166 13.651 8.23821 66.3685 5.31143 10.3586 25.8742 2.79826 -11.5375 173.492 14.5269 107.36 -63.093 3.5478 5.61843 87.8814 -10.4373 -2.70525 25.3274 -2.05926 4.75318 -0.496142 8.56619 -91.5006 9.712 -1.66767 -2.84537 -1.96082 -1.79124 -2.76928 -24.4733 -0.735934 -3.21464 -4.46068 -0.735943 -3.21463 89.7992 -46.8422 -101.701 20.2138 2.34114 -6.60775 -46.143 -2.53012 -80.4374 -7.65998 -0.539835 3.42184 -89.4961 -40.5006 77.5247 -18.9912 29.03 8.7527 76.8685 -22.8475 -84.8194 -3.35667 -0.11302 -1.12966 18.075 9.30631 5.84367 4.01827 7.16736 -1.58663 
127.495 88.3553 128.707 -96.8484 49.9592 -75.4986 -178.888 44.0881 100.379 -98.7977 9.33434 7.31752 70.6279 7.08977 9.02745 26.7996 3.70465 -13.6278 174.403 5.87049 103.369 -58.9862 1.88601 4.25999 91.1971 -11.7355 -2.83556 28.3536 -1.65327 5.45707 0.248141 8.15143 -91.0874 10.5671 -0.00563274 -2.16234 -1.1057 -0.100762 -2.16001 -23.6269 0.644354 -2.06416 -3.61431 0.644351 -2.06416 89.9001 -45.9658 -101.766 18.68 -2.60983 -15.6983 -46.2263 2.23039 -83.7131 -7.11315 -0.440496 2.38921 -88.1619 -39.1946 79.4477 -26.4162 32.9392 22.7983 79.8714 -26.4512 -83.1497 -3.52832 -0.118534 -1.03225 16.0117 5.84953 3.15206 4.29242 4.7567 -0.313439 
